<svg xmlns="http://www.w3.org/2000/svg" width="142.962" height="107.222" viewBox="0 0 142.962 107.222"><defs><style>.a{opacity:0.61;}</style></defs><path class="a" d="M142.962,133.443l-33.6,33.6a19.908,19.908,0,0,1-14.141,5.85c-17.7,0-26.764-21.522-14.141-34.138l32.994-33a14.89,14.89,0,0,1,25.4,10.663,14.518,14.518,0,0,1-4.372,10.365l-29.3,29.3a9.681,9.681,0,0,1-13.695-13.689l23.654-23.648,4.932,4.932L97.041,147.316a2.708,2.708,0,0,0,3.83,3.83l29.3-29.3a7.893,7.893,0,0,0-11.163-11.163l-32.994,33a13.028,13.028,0,0,0,18.424,18.424l33.6-33.6ZM41.7,98.429a8.935,8.935,0,1,0-8.935,8.935A8.938,8.938,0,0,0,41.7,98.429ZM86.79,116.376l-9.352-14.969L62.427,125.234,47.654,113.559l-23.827,35.5H63.7a31.582,31.582,0,0,1,8.953-18.549Zm-22.362,44.6H11.914V77.58H119.135V90.244a25.149,25.149,0,0,1,11.914.3V65.667H0V172.888H70.4A31.733,31.733,0,0,1,64.428,160.975Z" transform="translate(0 -65.667)"/></svg>