<svg xmlns="http://www.w3.org/2000/svg" width="25.059" height="25.059" viewBox="0 0 25.059 25.059"><defs><style>.a{fill:#529a0b;fill-rule:evenodd;}</style></defs><path class="a" d="M12.53,2.227a38.418,38.418,0,0,1,5.012.139,6.457,6.457,0,0,1,2.367.418,4.889,4.889,0,0,1,2.367,2.367,6.457,6.457,0,0,1,.418,2.367c0,1.253.139,1.671.139,5.012a38.419,38.419,0,0,1-.139,5.012,6.457,6.457,0,0,1-.418,2.367,4.889,4.889,0,0,1-2.367,2.367,6.457,6.457,0,0,1-2.367.418c-1.253,0-1.671.139-5.012.139a38.419,38.419,0,0,1-5.012-.139,6.457,6.457,0,0,1-2.367-.418,4.889,4.889,0,0,1-2.367-2.367,6.457,6.457,0,0,1-.418-2.367c0-1.253-.139-1.671-.139-5.012a38.418,38.418,0,0,1,.139-5.012,6.457,6.457,0,0,1,.418-2.367,5,5,0,0,1,.975-1.392,2.354,2.354,0,0,1,1.392-.975,6.457,6.457,0,0,1,2.367-.418,38.418,38.418,0,0,1,5.012-.139M12.53,0A41.135,41.135,0,0,0,7.379.139,8.6,8.6,0,0,0,4.316.7,5.45,5.45,0,0,0,2.088,2.088,5.45,5.45,0,0,0,.7,4.316,6.343,6.343,0,0,0,.139,7.379,41.135,41.135,0,0,0,0,12.53a41.135,41.135,0,0,0,.139,5.151A8.6,8.6,0,0,0,.7,20.743a5.45,5.45,0,0,0,1.392,2.227,5.45,5.45,0,0,0,2.227,1.392,8.6,8.6,0,0,0,3.063.557,41.135,41.135,0,0,0,5.151.139,41.135,41.135,0,0,0,5.151-.139,8.6,8.6,0,0,0,3.063-.557,5.841,5.841,0,0,0,3.62-3.62,8.6,8.6,0,0,0,.557-3.063c0-1.392.139-1.81.139-5.151a41.135,41.135,0,0,0-.139-5.151,8.6,8.6,0,0,0-.557-3.063,5.45,5.45,0,0,0-1.392-2.227A5.45,5.45,0,0,0,20.743.7,8.6,8.6,0,0,0,17.681.139,41.135,41.135,0,0,0,12.53,0m0,6.126a6.3,6.3,0,0,0-6.4,6.4,6.4,6.4,0,1,0,6.4-6.4m0,10.581A4.1,4.1,0,0,1,8.353,12.53,4.1,4.1,0,0,1,12.53,8.353a4.1,4.1,0,0,1,4.177,4.177,4.1,4.1,0,0,1-4.177,4.177m6.682-12.39a1.531,1.531,0,1,0,1.531,1.531,1.545,1.545,0,0,0-1.531-1.531"/></svg>