<svg xmlns="http://www.w3.org/2000/svg" width="43.951" height="29.967" viewBox="0 0 43.951 29.967"><defs><style>.a{fill:#00cb57;}</style></defs><path class="a" d="M23.976,31.474a8.441,8.441,0,0,0,8.491-8.491,8.441,8.441,0,0,0-8.491-8.491,8.441,8.441,0,0,0-8.491,8.491,8.441,8.441,0,0,0,8.491,8.491Zm0-2.9a5.543,5.543,0,0,1-5.594-5.594,5.543,5.543,0,0,1,5.594-5.594,5.543,5.543,0,0,1,5.594,5.594,5.543,5.543,0,0,1-5.594,5.594Zm0,9.39A22.384,22.384,0,0,1,10.79,33.821,25.254,25.254,0,0,1,2,22.983a25.254,25.254,0,0,1,8.79-10.838A22.384,22.384,0,0,1,23.976,8a22.384,22.384,0,0,1,13.185,4.145,25.254,25.254,0,0,1,8.79,10.838,25.254,25.254,0,0,1-8.79,10.838A22.384,22.384,0,0,1,23.976,37.967Z" transform="translate(-2 -8)"/></svg>