<svg xmlns="http://www.w3.org/2000/svg" width="389.741" height="511.442" viewBox="0 0 389.741 511.442">
  <path id="Intersection_1" data-name="Intersection 1" d="M1507.871,2048.441h-174.5l-4.1-2.2c-6.7-3.6-10.1-7-13.1-13.1l-2.8-5.7v-348.7l2.8-2.4c3.5-3,5.9-3,9.4,0l2.8,2.4.5,173.9c.4,133.8.8,174.3,1.7,175.9a12.411,12.411,0,0,0,4.7,3.8c3.1,1.5,18.3,1.6,172.6,1.6s169.5-.1,172.6-1.6a12.4,12.4,0,0,0,4.7-3.8c.8-1.5,1.3-12.1,1.7-36.4l.5-34.4,2.4-1.9a8.124,8.124,0,0,1,10.2,0l2.4,1.9v69.7l-2.8,5.7c-3,6.1-6.4,9.5-13.1,13.1l-4.1,2.2Zm96.381-32.16c-23.035,0-45.257-13.971-53.98-36.74-3.2-8.4-4.3-23.7-2.4-33,4-19.6,20.6-37,40.5-42.7,7.7-2.2,22.2-2.4,29.9-.4,20.2,5.3,37.5,23.2,41.6,43.2,2,9.4.8,24.4-2.5,32.8a58.4,58.4,0,0,1-29,31.4,55.9,55.9,0,0,1-24.113,5.44Zm-22.781-93.44c-5.4,3.4-13.5,12.7-16.4,18.8-2.4,5.3-2.7,6.9-2.7,17.3,0,11,.1,11.8,3.3,18.3,15.7,31.9,60.7,31.8,76.5-.2,3-6.2,3.2-7.1,3.2-18.1,0-10.9-.2-11.8-3.2-18.1-4-8.1-13-17-21-20.6-4.8-2.2-7.6-2.7-15.8-3-1.133-.042-2.209-.065-3.239-.065C1593.514,1917.177,1588.17,1918.733,1581.471,1922.842Zm-182.2,61.9-32.6-.3-1.9-2.4c-2.5-3-2.4-7.6.1-10.1,1.9-1.9,3.3-2,35.4-2h33.5l2,2.6c2.9,3.6,2.6,6-.9,9.5l-2.9,3Zm176.9-18.7c-3.3-4.3.3-11.1,5.9-11.1,1.7,0,6.6,1.9,10.9,4.2s8,4,8.3,3.7c.2-.2,3.4-5.1,7.1-10.9s7.7-11.5,8.8-12.8c4.2-4.6,12.7-1.2,12.7,5.2,0,2.4-18.9,32.2-22.1,34.8a7.741,7.741,0,0,1-4.1,1.8C1601.371,1980.941,1577.871,1968.242,1576.171,1966.042Zm-145.9-19.1c-62.1,0-63.4,0-65.4-2-3.4-3.4-2.1-10.2,2.3-12,1.2-.5,29.6-.8,64-.7l61.9.2,2.4,2.8c2.9,3.4,3,5.6.3,9.1l-2,2.6Zm257.9-19c-.9-2.7-1.2-40.3-1.2-154.8l-.1-151.2h-357.8l-.3,13.1c-.4,12.9-.4,13.1-3.2,15.5-3.5,3-5.9,3-9.4,0l-2.8-2.4-.3-39.7c-.3-44.2.2-51.4,4.5-58.4,3-4.8,10.3-10.5,15.7-12,4.3-1.3,270.2-1.4,272.5-.1a7.812,7.812,0,0,1,3,3.9c1,2.4,1,3.4-.3,5.9a9.56,9.56,0,0,1-3.1,3.6c-.9.3-61.3.6-134.2.6-120.6,0-132.8.1-135.9,1.6-6,2.9-6.4,4.6-6.4,30.4v23h358v-23c0-25.8-.4-27.5-6.4-30.4-2.8-1.3-7.1-1.6-24.8-1.6-20.2,0-21.6-.1-23.6-2a7.757,7.757,0,0,1,.1-11c2.1-2.1,3-2.1,26.2-1.8,23.9.3,24,.3,29.1,3,5.9,3.1,9.8,7.3,12.8,13.8l2.1,4.5.3,182.6c.2,145.6,0,183.4-1,186.5-1.227,3.626-4.095,5.452-6.929,5.452A6.982,6.982,0,0,1,1688.171,1927.942Zm-96.6-44c-20-4.1-37.9-21.4-43.2-41.6-2-7.7-1.9-22.5.1-29.5a59.186,59.186,0,0,1,39.4-40c8.8-2.9,24.2-2.5,33.8.7a57.744,57.744,0,0,1,37.7,40.1c1.9,7.3,1.9,21.3,0,28.6a58.821,58.821,0,0,1-36,39.7c-4.867,1.842-13.41,2.905-21.107,2.905A54.17,54.17,0,0,1,1591.571,1883.942Zm-.4-96.6a45.223,45.223,0,0,0-25.6,22.5c-3,6.2-3.2,7.1-3.2,18.1s.2,11.9,3.2,18.1a46.912,46.912,0,0,0,20.2,20.2c6.2,3,7.1,3.2,18.1,3.2s11.9-.2,18.1-3.2a46.914,46.914,0,0,0,20.2-20.2c3-6.2,3.2-7.1,3.2-18.1s-.2-11.9-3.2-18.1a46.165,46.165,0,0,0-20.2-20.1c-5.8-2.9-7.5-3.3-16.5-3.5q-1.648-.05-3.172-.05C1597.316,1786.191,1593.414,1786.594,1591.171,1787.342Zm-225.7,64.5c-3.3-2.6-3.5-7.3-.4-10.6l2.1-2.3h32.4c21,0,33.1.4,34.4,1.1,4.8,2.5,4.3,11-.8,13-1.3.5-16.5.9-33.7.9C1369.271,1853.942,1368.071,1853.842,1365.471,1851.842Zm237.5-2.2c-3.3-.7-22.9-11.3-25.8-14-4-3.6-2.6-9.7,2.7-11.5,2.7-1,4-.6,12.1,3.4,5,2.5,9.2,4.4,9.4,4.2.1-.1,3.3-5,7-10.8a154.489,154.489,0,0,1,8.8-12.8c4.1-4.4,12.7-1.3,12.7,4.7,0,2.8-17.7,31.1-21.8,34.9a5.928,5.928,0,0,1-4.158,1.983A5.683,5.683,0,0,1,1602.971,1849.642Zm-173.1-33.2h-63.2l-1.9-2.4c-2.5-3-2.4-7.6.1-10.1,2-2,3.3-2,65.4-2h63.5l2,2.6c2.7,3.5,2.6,5.7-.3,9.1l-2.4,2.8Zm159.6-64.1c-20.2-5.2-37.5-23-41.6-43-1.9-9.3-.8-24.6,2.4-33a58.782,58.782,0,0,1,46.6-36.4c20.2-2.6,41.6,6.7,53.3,23.2,7.1,10.1,10,18.5,10.5,30.4.5,12.5-.8,19.2-5.9,29.4a58.877,58.877,0,0,1-36.5,29.5,57.692,57.692,0,0,1-13.89,1.451A64.16,64.16,0,0,1,1589.471,1752.341Zm-4.2-93.4a44.954,44.954,0,0,0-19.6,19.7c-3.2,6.5-3.3,7.3-3.3,18.3,0,10.4.3,12,2.7,17.3,3.8,8.1,12.6,17,20.7,21,6.3,3,7.2,3.2,18.1,3.2,10.4,0,12.1-.3,17.3-2.7,8.1-3.8,17-12.6,20.9-20.7,2.7-5.5,3.3-8.1,3.6-15.7.5-11.4-1.2-18-7.1-26.6-5-7.3-14.1-14-22-16.2a49.576,49.576,0,0,0-13.4-2.021A39.343,39.343,0,0,0,1585.271,1658.942Zm-220.1,61.8a6.953,6.953,0,0,1,.3-10.7c2.6-2,3.8-2.1,34.5-2.1,17.4,0,32.5.3,33.4.6,2.4,1,4.6,6,3.9,8.9-1.3,5.4-2.1,5.5-37.3,5.5C1367.971,1722.942,1367.471,1722.942,1365.171,1720.742Zm225.9-7.8c-6.5-3.4-12.7-7.3-13.9-8.6-3.8-4.2-2.7-9.2,2.6-11.4,2.8-1.1,3.7-.9,12.2,3.5,5,2.5,9.2,4.5,9.4,4.3.1-.2,3.3-5,7-10.8a154.424,154.424,0,0,1,8.8-12.8c4.1-4.4,12.7-1.3,12.7,4.7,0,1.6-4.2,9-10.9,19.2-8.5,13.1-11.4,16.8-13.6,17.3a4.172,4.172,0,0,1-.97.11C1602.287,1718.452,1598.957,1717.056,1591.071,1712.942Zm-225.6-29.1a7.476,7.476,0,0,1-.6-10.9c2-2,3.3-2,64.6-2,42.2,0,63.2.3,64.5,1.1,4.8,2.5,4.4,10.5-.7,12.8-1.8.8-20.4,1.1-63.8,1.1C1368.971,1685.942,1368.071,1685.942,1365.471,1683.842Z" transform="translate(-1313 -1537)" fill="#fff"/>
</svg>
