<svg xmlns="http://www.w3.org/2000/svg" width="28.868" height="23.415" viewBox="0 0 28.868 23.415">
  <path id="Path_2" data-name="Path 2" d="M47.141,25.415c10.906,0,16.839-8.981,16.839-16.839v-.8a13.036,13.036,0,0,0,2.887-3.047,13.313,13.313,0,0,1-3.368.962,6.24,6.24,0,0,0,2.566-3.208,14.71,14.71,0,0,1-3.689,1.443A5.728,5.728,0,0,0,58.047,2a6.025,6.025,0,0,0-5.934,5.934,3.127,3.127,0,0,0,.16,1.283A16.581,16.581,0,0,1,40.085,2.962a6.142,6.142,0,0,0-.8,3.047,6.372,6.372,0,0,0,2.566,4.972,5.407,5.407,0,0,1-2.726-.8h0a5.861,5.861,0,0,0,4.811,5.773,4.944,4.944,0,0,1-1.6.16,2.729,2.729,0,0,1-1.123-.16,6.076,6.076,0,0,0,5.613,4.17,12.109,12.109,0,0,1-7.377,2.566A4.44,4.44,0,0,1,38,22.528a15.138,15.138,0,0,0,9.141,2.887" transform="translate(-38 -2)" fill="#529a0b" fill-rule="evenodd"/>
</svg>
